<svg xmlns="http://www.w3.org/2000/svg" viewBox="0 0 765.45 151.14"><defs><style>.cls-1{fill:#fff;}.cls-2{fill:#ff4713;}</style></defs><g id="Layer_2" data-name="Layer 2"><g id="Layer_1-2" data-name="Layer 1"><path class="cls-1" d="M64.7,98.94a66.29,66.29,0,0,0-11.2-5.1A123.4,123.4,0,0,0,41,90.54q-19.8-5.4-19.8-15a11.38,11.38,0,0,1,5.1-9.8A21.47,21.47,0,0,1,39,62.14q16,0,21.4,12.8L75,66.74a35.28,35.28,0,0,0-14.3-15.3A42.51,42.51,0,0,0,39,45.94q-15.19,0-25.4,8.4a26.71,26.71,0,0,0-10,21.4,23.6,23.6,0,0,0,2.5,10.9,29.19,29.19,0,0,0,5.5,7.8,30.65,30.65,0,0,0,8.9,5.5,83.44,83.44,0,0,0,9.3,3.6q3.4,1,10,2.8,19.8,4.6,19.8,14.8a11.27,11.27,0,0,1-5.4,10.2q-5.4,3.39-14.4,3.4a28.79,28.79,0,0,1-15.8-4.2,21.1,21.1,0,0,1-9-11.4l-15,8.6a35,35,0,0,0,14.9,17.1q10.5,6.3,24.9,6.3,16.2,0,26.8-8.2a26.21,26.21,0,0,0,10.6-21.8,26.17,26.17,0,0,0-3.2-13.2A23.85,23.85,0,0,0,64.7,98.94Z"/><path class="cls-1" d="M141,45.94q-22.2,0-37.4,15.2T88.4,98.54q0,22.2,15.2,37.4t37.4,15.2q22.2,0,37.4-15.2a50.94,50.94,0,0,0,15.39-37.4,50.94,50.94,0,0,0-15.39-37.4Q163.19,45.94,141,45.94Zm25.2,78q-10.2,10.2-25.2,10.2a34,34,0,0,1-25-10.2q-10.2-10.2-10.2-25.4T116,73.14a34,34,0,0,1,25-10.2q15,0,25.2,10.2t10.19,25.4Q176.39,113.74,166.2,123.94Z"/><path class="cls-2" d="M405.45,45.94q-22.2,0-37.4,15.2t-15.2,37.4q0,22.2,15.2,37.4t37.4,15.2q22.2,0,37.4-15.2a50.94,50.94,0,0,0,15.4-37.4,50.94,50.94,0,0,0-15.4-37.4Q427.64,45.94,405.45,45.94Zm25.2,78q-10.2,10.2-25.2,10.2a34,34,0,0,1-25-10.2q-10.2-10.2-10.2-25.4t10.2-25.4a34,34,0,0,1,25-10.2q15,0,25.2,10.2t10.2,25.4Q440.85,113.74,430.65,123.94Z"/><polygon class="cls-2" points="624.41 48.36 652.36 98.42 624.41 148.6 644.45 148.6 672.39 98.42 644.45 48.36 624.41 48.36"/><polygon class="cls-2" points="701.67 48.24 673.73 98.42 701.67 148.47 721.71 148.47 693.76 98.42 721.71 48.24 701.67 48.24"/><path class="cls-2" d="M531.64,45.94q-22,0-32.4,17V48.38H464.45v17.4h17.39v82.76h17.4v-53q0-16.4,7.8-24.7t21.2-8.3q11.6,0,18.2,6.8t6.6,18.8v60.4h17.4V87.14q0-19-10.6-30.1T531.64,45.94Z"/><path class="cls-1" d="M751.16,84.18c-9.14,0-14.29,6.57-14.29,14.45s5.15,14.45,14.29,14.45,14.29-6.61,14.29-14.45S760.34,84.18,751.16,84.18Zm0,27.12c-7.84,0-12.27-5.63-12.27-12.67s4.43-12.71,12.27-12.71,12.31,5.62,12.31,12.71S759,111.3,751.16,111.3Z"/><path class="cls-1" d="M752.62,90.83h-6.73V106h1.87v-5.7H751l5,5.7h2.06v-.32l-4.75-5.38A4.74,4.74,0,0,0,752.62,90.83Zm-4.86,7.8v-6h4.86a3,3,0,1,1-.11,6Z"/><path class="cls-1" d="M307.13,133.58c-9.89,0-17.94-7.69-17.94-17.13v-44h36V55h-36V34.58H271.73V55H235.86V34.58c0-9.44,8-17.13,17.94-17.13a18.51,18.51,0,0,1,8.58,2.1L275.6,7.37A35.72,35.72,0,0,0,253.8,0c-19.07,0-34.65,14.81-35.36,33.27h0V55H200.91V72.4H218.4v76.1h17.46V72.4h35.87v44.1h0c0,19.05,15.89,34.53,35.39,34.53s35.39-15.51,35.39-34.58H325.07C325.07,125.89,317,133.58,307.13,133.58Z"/><circle class="cls-2" cx="605.47" cy="14.92" r="14.77"/><polygon class="cls-2" points="579.34 65.82 596.85 65.82 596.85 148.54 614.23 148.54 614.23 48.36 579.34 48.36 579.34 65.82"/></g></g></svg>